PathFileType	4	(X/Y/Z)	./resultDataOpenSim/trcMotMarkerGrf/sub06/qtm-14-07.trc
DataRate	CameraRate	NumFrames	NumMarkers	Units	OrigDataRate	OrigDataStartFrame	OrigNumFrames
250.000000	250.000000	15	24	m	250.000000	396	527
Frame#	Time	L.Toe.Tip			R.Toe.Tip			L.Ankle.Lat			R.Ankle.Lat			L.Ankle.Med			R.Ankle.Med			L.Heel			R.Heel			L.Knee.Lat			R.Knee.Lat			L.Knee.Med			R.Knee.Med			L.Thigh.Upper			R.Thigh.Upper			L.ASIS			R.ASIS			V.Sacral			L.Acromium			R.Acromium			C7			L.Elbow			R.Elbow			L.Wrist.Lat			R.Wrist.Lat
		X1	Y1	Z1	X2	Y2	Z2	X3	Y3	Z3	X4	Y4	Z4	X5	Y5	Z5	X6	Y6	Z6	X7	Y7	Z7	X8	Y8	Z8	X9	Y9	Z9	X10	Y10	Z10	X11	Y11	Z11	X12	Y12	Z12	X13	Y13	Z13	X14	Y14	Z14	X15	Y15	Z15	X16	Y16	Z16	X17	Y17	Z17	X18	Y18	Z18	X19	Y19	Z19	X20	Y20	Z20	X21	Y21	Z21	X22	Y22	Z22	X23	Y23	Z23	X24	Y24	Z24

396	1.58	1.4989381	0.09704285	-0.096117538	0.96222417	0.034997777	0.070105161	1.3732041	0.12160622	-0.12016852	0.83460262	0.083623323	0.099911238	1.3724223	0.13398804	-0.035939775	0.85838513	0.10714316	0.015381445	1.3033473	0.082472733	-0.078767244	0.77664071	0.077101487	0.041071841	1.3641236	0.49908554	-0.11077611	0.99239085	0.44340123	0.13793214	1.3479074	0.48741352	0.0087919617	0.97071695	0.4453368	0.0074836882	1.1441433	0.82193178	-0.14118451	1.0656098	0.80100915	0.19814592	1.2001202	0.86549592	-0.082185955	1.1731814	0.85537935	0.16389006	1.0031107	0.93226752	0.023468937	1.1071487	1.3402118	-0.1493609	1.1237283	1.3360306	0.20928699	1.0419387	1.3714611	0.033757085	0.99938656	1.0489786	-0.20348817	1.1338957	1.0247697	0.32713282	1.0779176	0.82658889	-0.27184925	1.3821268	1.0233293	0.27748053
397	1.584	1.5142493	0.098310117	-0.095124395	0.96228325	0.03498974	0.070089068	1.387736	0.11992358	-0.11920218	0.8350944	0.084334496	0.09995932	1.3870655	0.13243764	-0.034923389	0.85899755	0.10759198	0.015378289	1.3189883	0.079290698	-0.077864808	0.77709497	0.078133712	0.041042011	1.368584	0.49636078	-0.11015694	0.99636558	0.44296385	0.13760153	1.3525714	0.484639	0.0094907386	0.97425377	0.44487619	0.0071945398	1.1505636	0.8205588	-0.14159165	1.0706892	0.79967121	0.19738744	1.206622	0.86411827	-0.082407746	1.1788151	0.85398287	0.16343348	1.0089249	0.93091373	0.022589081	1.1127659	1.3387818	-0.1497247	1.1293088	1.3346813	0.20900312	1.0475414	1.3701536	0.033450401	1.0035204	1.0480216	-0.2040616	1.1410986	1.0235205	0.32688021	1.0801002	0.82531413	-0.27243824	1.3891182	1.0239726	0.27626556
398	1.588	1.5289985	0.099607341	-0.094025318	0.96234291	0.034987359	0.070087291	1.4018049	0.11844185	-0.11813752	0.83561981	0.085070659	0.10004377	1.4018998	0.13113484	-0.033578121	0.85963302	0.10806549	0.015408565	1.3341829	0.076427582	-0.076831208	0.77754586	0.07922536	0.041083985	1.3730704	0.49352648	-0.10953486	1.0000702	0.4424544	0.13738698	1.3571901	0.48178836	0.01022467	0.97788606	0.44439374	0.0069402731	1.1570164	0.81914193	-0.14201143	1.075976	0.79836529	0.19681273	1.2131525	0.86271577	-0.082644076	1.1845365	0.85243487	0.16307873	1.0148009	0.92953636	0.021778866	1.1184119	1.3373325	-0.15009611	1.1349243	1.3333166	0.20869929	1.0531504	1.36884	0.033122595	1.0077607	1.0469633	-0.20481865	1.1482359	1.0222541	0.32659126	1.0823778	0.82404004	-0.27299435	1.3960467	1.0244974	0.27507609
399	1.592	1.5431667	0.10091265	-0.092834221	0.96240171	0.034991183	0.070100847	1.4153516	0.11713195	-0.11699026	0.83617858	0.085824017	0.10016047	1.4168132	0.13004942	-0.031919264	0.86028432	0.10857628	0.01548217	1.3488137	0.073835889	-0.075645071	0.77797291	0.080392439	0.041261247	1.377617	0.49061479	-0.10891731	1.0036725	0.44189688	0.13724061	1.3617441	0.47887673	0.010979818	0.98162269	0.44388535	0.0067217809	1.1634853	0.81768587	-0.14243339	1.0815442	0.7971299	0.19651743	1.2197105	0.86129464	-0.082892913	1.1903264	0.85078642	0.162794	1.0207837	0.92814363	0.021067562	1.1240918	1.3358694	-0.15047571	1.1405503	1.3319434	0.20837191	1.0587255	1.3675576	0.032742101	1.0120232	1.0457992	-0.20569591	1.155312	1.0209775	0.32627548	1.0847625	0.82276067	-0.27351893	1.4029144	1.0248976	0.2739043
400	1.596	1.5567319	0.1021883	-0.091589052	0.96246006	0.0349942	0.070126044	1.4283246	0.11596309	-0.11576989	0.83676604	0.086596581	0.10031639	1.4309485	0.12910519	-0.03026659	0.86095692	0.10913186	0.015605898	1.3628046	0.071469979	-0.074295322	0.77837983	0.081643845	0.041584846	1.3822546	0.4876668	-0.10830777	1.0073406	0.44131447	0.1371228	1.3662267	0.47592937	0.011747068	0.98547283	0.44334648	0.0065333541	1.169968	0.81619415	-0.14285305	1.087309	0.79588771	0.1964105	1.2262893	0.85986419	-0.083155448	1.1961744	0.849108	0.16253848	1.026857	0.92674161	0.020406402	1.1298062	1.3343968	-0.15086767	1.1461765	1.33057	0.20802575	1.0642377	1.3663333	0.032280774	1.0161938	1.0445749	-0.20641099	1.1623461	1.0197055	0.32594343	1.0872732	0.82146924	-0.27402689	1.4097185	1.0251697	0.27274919
401	1.6	1.5696792	0.10337375	-0.090321301	0.9625202	0.034988384	0.070162331	1.4406727	0.11490374	-0.11448865	0.83738511	0.087400688	0.10053534	1.4434314	0.12819423	-0.028967618	0.86166434	0.10972612	0.015778303	1.3761148	0.069300899	-0.072804997	0.77879568	0.082975288	0.041999944	1.3870144	0.48472954	-0.10769847	1.0111421	0.44071348	0.13702194	1.3706512	0.47297915	0.012524555	0.98944485	0.44277339	0.0063703684	1.1764687	0.81466843	-0.14326896	1.0931314	0.79450969	0.19628635	1.2328857	0.85843504	-0.083434772	1.2020702	0.8474381	0.16228786	1.0329703	0.92533384	0.019717095	1.1355527	1.332917	-0.15127619	1.1518153	1.3291985	0.20766898	1.0697244	1.3651334	0.031757189	1.0203207	1.0434264	-0.20647734	1.1693534	1.0184482	0.32559691	1.0899161	0.82017207	-0.27452673	1.4164452	1.0253121	0.27161848
402	1.604	1.5819908	0.10440644	-0.089051231	0.96258206	0.034986678	0.070221294	1.4523601	0.11391418	-0.11317094	0.83804941	0.088249363	0.10083741	1.4543815	0.12726402	-0.027994316	0.86240908	0.1103526	0.015994787	1.3887102	0.06730373	-0.071195585	0.77925988	0.084375118	0.042436213	1.3919265	0.48185479	-0.10707132	1.0150848	0.44009181	0.13693732	1.375036	0.47005393	0.013312191	0.99354066	0.44216447	0.0062330566	1.1829894	0.81310633	-0.14367834	1.0989534	0.79297737	0.19600105	1.2395116	0.85701707	-0.083735129	1.2079934	0.84578929	0.162033	1.039112	0.92392483	0.019018846	1.141331	1.3314348	-0.15169843	1.1574693	1.3278279	0.20730655	1.0752731	1.3638857	0.031230832	1.0247157	1.0425199	-0.20559031	1.1763164	1.0171947	0.32522187	1.0926864	0.8188845	-0.27501336	1.4230868	1.0253216	0.27051795
403	1.608	1.5935722	0.10526864	-0.087826233	0.9626403	0.03503673	0.070322234	1.4633766	0.11294276	-0.11184491	0.83876358	0.089145514	0.10120831	1.4644623	0.12639105	-0.027087179	0.86318176	0.11101837	0.016255699	1.4005632	0.065435101	-0.069487603	0.77979789	0.085838976	0.042866837	1.397012	0.47909419	-0.10641126	1.0191548	0.4394454	0.13686819	1.3793906	0.46717366	0.014106558	0.99775599	0.44151846	0.0061283291	1.189531	0.811507	-0.14407664	1.1046956	0.7914163	0.19552406	1.246195	0.85561753	-0.084064242	1.2139299	0.84416345	0.16178359	1.0453363	0.92251924	0.018446056	1.1471411	1.3299564	-0.15212681	1.1631219	1.3264607	0.20693803	1.0809267	1.3625593	0.030729503	1.0295587	1.0418644	-0.20409608	1.1831937	1.0159214	0.32480027	1.0955792	0.81761182	-0.27548108	1.4296533	1.0251976	0.26944408
404	1.612	1.6042756	0.10597933	-0.086718341	0.9626874	0.035191963	0.070475822	1.4737243	0.11193776	-0.11051694	0.83951428	0.090085039	0.10160514	1.4739434	0.12567896	-0.026106313	0.86398141	0.11173411	0.016563589	1.4116571	0.06363501	-0.067706836	0.78041194	0.087375585	0.043309703	1.4022743	0.47648729	-0.10571395	1.0233428	0.43876998	0.13681416	1.3837261	0.46435809	0.014904886	1.0020886	0.44083385	0.0060612555	1.1961033	0.80987975	-0.14446131	1.1102171	0.78995518	0.19490033	1.2529597	0.85423949	-0.084430879	1.2198887	0.84256017	0.16155084	1.0517119	0.92111734	0.018119525	1.152985	1.328484	-0.1525619	1.1687709	1.3250997	0.20655386	1.0866591	1.3611747	0.03022612	1.034615	1.0412638	-0.20278233	1.1899622	1.0146203	0.32433128	1.0985962	0.81634795	-0.27593397	1.4361595	1.0249459	0.26839066
405	1.616	1.6140466	0.10652513	-0.085746477	0.96272508	0.035441819	0.070668783	1.4833829	0.11086029	-0.1091498	0.84029048	0.091067853	0.10200408	1.4828023	0.1250739	-0.025025093	0.86482293	0.11250264	0.016914572	1.4219778	0.061853623	-0.065872073	0.78109258	0.088997368	0.043789504	1.4076959	0.47405494	-0.10497271	1.0276488	0.43806331	0.13677571	1.3880747	0.46162874	0.01571277	1.0065438	0.44011127	0.0060251074	1.2027245	0.80824087	-0.14483438	1.1154545	0.78862958	0.19421156	1.2597909	0.85288366	-0.084828976	1.2258929	0.84098112	0.16132378	1.0582407	0.91972072	0.017993142	1.1588689	1.3270148	-0.15301554	1.1744406	1.3237424	0.20614135	1.0924383	1.3597642	0.029689571	1.0396168	1.0405388	-0.2021217	1.1966288	1.0133031	0.32382833	1.1017426	0.81508767	-0.27637732	1.4426111	1.0245729	0.26735609
406	1.62	1.622969	0.10683971	-0.084836328	0.96277209	0.035688668	0.070871732	1.4923133	0.10968318	-0.10768757	0.84110406	0.092096875	0.10242639	1.4911088	0.12438531	-0.02381083	0.86572432	0.11332523	0.017298649	1.4315131	0.06006226	-0.063989327	0.7818362	0.090711247	0.044313775	1.4132517	0.47180584	-0.1041638	1.0320741	0.4373264	0.13675139	1.3924784	0.45899839	0.016543633	1.0111312	0.43935446	0.0060088889	1.2094093	0.80660168	-0.14520056	1.1203124	0.78746794	0.19356795	1.266639	0.85155007	-0.085232106	1.2319636	0.83943612	0.16108093	1.0648411	0.91834056	0.017845066	1.1647984	1.3255468	-0.15349988	1.1801482	1.3223869	0.20569634	1.0982543	1.358355	0.029110666	1.0445182	1.0396833	-0.20198788	1.203203	1.0119795	0.32329907	1.105026	0.81382739	-0.27680977	1.449002	1.0240782	0.26633905
407	1.624	1.6311722	0.10684529	-0.083867984	0.96285185	0.035825504	0.071066791	1.5005047	0.10838342	-0.10611501	0.842	0.093166567	0.10291456	1.4989426	0.12346763	-0.022447478	0.86669813	0.11420709	0.017706418	1.4402606	0.05823124	-0.06203448	0.78265016	0.092520483	0.044874879	1.4189251	0.46974219	-0.10326594	1.0366193	0.43656286	0.13674019	1.3969621	0.45646749	0.0174089	1.015859	0.43856814	0.0060078268	1.2161647	0.80496877	-0.14556295	1.124358	0.78661357	0.19314483	1.2734648	0.85023662	-0.085615139	1.238117	0.83794215	0.16082973	1.0714405	0.91698783	0.01745659	1.1707763	1.3240824	-0.15401994	1.1858852	1.3210369	0.20521989	1.1041005	1.3569626	0.028491364	1.0493393	1.0387774	-0.20202531	1.2096836	1.0106498	0.32274102	1.1084563	0.81256443	-0.27723107	1.4553232	1.0234585	0.26533603
408	1.628	1.638748	0.10647963	-0.082759441	0.96297474	0.035817779	0.071249565	1.5079921	0.10693895	-0.10447044	0.84305119	0.094269345	0.10350285	1.506297	0.12229129	-0.020960914	0.8677532	0.11515379	0.018133604	1.448228	0.056313987	-0.059934224	0.78354311	0.094430253	0.045461596	1.4247025	0.467857	-0.10230312	1.0412881	0.43577872	0.136745	1.4015383	0.4540437	0.018309352	1.0207339	0.43775464	0.0060224476	1.2229956	0.80335547	-0.14592041	1.127075	0.7862291	0.19311379	1.2802646	0.84893804	-0.0859708	1.2443697	0.83650762	0.16062023	1.0780591	0.9156565	0.016771529	1.1768035	1.3226268	-0.15457559	1.1916465	1.3196963	0.20471039	1.1099708	1.3555859	0.027840495	1.0541605	1.0378574	-0.202022	1.2160697	1.0093161	0.32215107	1.1120402	0.8113019	-0.27764842	1.4615733	1.022713	0.26434693
409	1.632	1.6457182	0.10569756	-0.08152916	0.96313648	0.035703984	0.071400367	1.5148284	0.10533068	-0.10280398	0.84430086	0.095418193	0.10419055	1.513184	0.12088902	-0.019380783	0.8688975	0.11616685	0.018581258	1.4554278	0.05427492	-0.057629149	0.78452013	0.096448056	0.046066515	1.4305639	0.46613022	-0.10134597	1.0460865	0.43498064	0.13677101	1.4062274	0.45176433	0.019231824	1.0257619	0.436912	0.0060533248	1.2299058	0.8017817	-0.14626926	1.1288077	0.78619968	0.19340318	1.287057	0.84764602	-0.086304558	1.2507295	0.83512097	0.16050055	1.0847656	0.91432535	0.015896638	1.1828787	1.321185	-0.15516582	1.1974452	1.3183657	0.20416547	1.1158698	1.354216	0.027167108	1.059271	1.0368712	-0.20201241	1.2223668	1.0079858	0.32152918	1.1157792	0.8100459	-0.27807032	1.4677588	1.0218453	0.26337488
410	1.636	1.6520563	0.10447385	-0.080262118	0.96332546	0.035553993	0.071472371	1.5210646	0.10354494	-0.10114748	0.84567313	0.096650716	0.10489788	1.5196489	0.11929618	-0.01772859	0.87013838	0.11724501	0.019052188	1.4618839	0.052135205	-0.055208208	0.78558817	0.098580625	0.046686353	1.4364816	0.46452952	-0.10045629	1.0510165	0.43417294	0.13682338	1.4110553	0.44969167	0.020151407	1.0309469	0.43603802	0.0060999524	1.2368948	0.80026435	-0.14660566	1.1309734	0.78609086	0.19365126	1.2938657	0.84635195	-0.086626963	1.2571823	0.83376557	0.16045168	1.0915612	0.91298481	0.015000674	1.1890002	1.3197592	-0.15579002	1.2032874	1.317048	0.20358528	1.1218104	1.352851	0.026470427	1.065137	1.0357173	-0.20222603	1.2285809	1.0066651	0.3208744	1.1196711	0.80879899	-0.27849878	1.4738857	1.0208616	0.26242177
